<?xml version="1.0" encoding="UTF-8" standalone="no"?>
<svg
   xmlns:dc="http://purl.org/dc/elements/1.1/"
   xmlns:cc="http://creativecommons.org/ns#"
   xmlns:rdf="http://www.w3.org/1999/02/22-rdf-syntax-ns#"
   xmlns:svg="http://www.w3.org/2000/svg"
   xmlns="http://www.w3.org/2000/svg"
   xmlns:sodipodi="http://sodipodi.sourceforge.net/DTD/sodipodi-0.dtd"
   xmlns:inkscape="http://www.inkscape.org/namespaces/inkscape"
   viewBox="0 0 478.21696 478.20299"
   version="1.1"
   width="478.21698pt"
   height="478.203pt"
   id="svg13"
   sodipodi:docname="AkaBlasBot-no-background.svg"
   inkscape:version="0.92.4 (5da689c313, 2019-01-14)"
   inkscape:export-filename="C:\Users\Hinrich\Desktop\AkaBlasBot.png"
   inkscape:export-xdpi="83.830002"
   inkscape:export-ydpi="83.830002">
  <metadata
     id="metadata17">
    <rdf:RDF>
      <cc:Work
         rdf:about="">
        <dc:format>image/svg+xml</dc:format>
        <dc:type
           rdf:resource="http://purl.org/dc/dcmitype/StillImage" />
        <dc:title></dc:title>
      </cc:Work>
    </rdf:RDF>
  </metadata>
  <sodipodi:namedview
     pagecolor="#ffffff"
     bordercolor="#666666"
     borderopacity="1"
     objecttolerance="10"
     gridtolerance="10"
     guidetolerance="10"
     inkscape:pageopacity="0"
     inkscape:pageshadow="2"
     inkscape:window-width="1800"
     inkscape:window-height="1059"
     id="namedview15"
     showgrid="false"
     fit-margin-top="0"
     fit-margin-left="0"
     fit-margin-right="0"
     fit-margin-bottom="0"
     inkscape:zoom="0.70710678"
     inkscape:cx="32.054345"
     inkscape:cy="398.4061"
     inkscape:window-x="-9"
     inkscape:window-y="-9"
     inkscape:window-maximized="1"
     inkscape:current-layer="Hintergrund"
     inkscape:snap-bbox="true"
     inkscape:snap-global="true"
     inkscape:object-paths="true" />
  <defs
     id="defs7">
    <radialGradient
       gradientTransform="matrix(0.59628533,-1.1925693,1.1925693,0.59628533,-129.12413,546.97867)"
       cy="283.465"
       gradientUnits="userSpaceOnUse"
       r="316.923"
       cx="283.465"
       fy="283.465"
       id="Grad0"
       fx="283.465">
      <stop
         stop-opacity="1"
         stop-color="#476990"
         offset="0%"
         id="stop2"
         style="stop-color:#54698e;stop-opacity:1" />
      <stop
         stop-opacity="1"
         stop-color="#001345"
         offset="80%"
         id="stop4"
         style="stop-color:#001a46;stop-opacity:1" />
    </radialGradient>
  </defs>
  <g
     inkscape:label="Hintergrund"
     id="Hintergrund"
     inkscape:groupmode="layer"
     transform="translate(-44.356508,-44.363125)">
    <path
       style="fill:#ffec00;fill-opacity:1;stroke-width:1.06666458"
       d="m 340.51172,24.751953 c -13.80805,0.03141 -27.25261,0.924705 -40.21875,2.675781 -60.7668,8.206556 -117.71092,33.793259 -164.1543,73.759766 -20.27689,17.44913 -40.473672,39.82092 -55.929686,61.95312 -34.200169,48.97286 -52.514828,103.93093 -55.292968,165.91797 -0.322698,7.20011 -0.168683,30.67449 0.238281,36.28321 0.785919,10.83128 1.47876,17.72572 2.564453,25.55859 8.111687,58.52233 31.702891,110.88943 70.759766,157.06641 13.666934,16.15837 30.936244,33.06859 47.054684,46.07422 51.31494,41.40504 111.06425,64.24321 177.71875,67.93164 2.57399,0.1424 5.3291,0.29699 6.1211,0.34179 h 0.002 c 0.792,0.0459 8.24261,0.0537 16.55859,0.0195 15.17558,-0.0624 19.40249,-0.23256 29.88086,-1.20312 45.17051,-4.18368 86.30767,-16.98842 124.08008,-38.62305 25.16059,-14.41106 47.0598,-31.31735 69.00781,-53.27539 19.29916,-19.30801 34.48591,-38.26369 47.79297,-59.65234 10.14346,-16.30375 19.40054,-35.05814 25.94336,-52.5586 11.56062,-30.92165 17.78368,-61.8367 19.49024,-96.83007 0.31424,-6.47115 0.31509,-25.68474 0,-32.18164 -1.39083,-28.68326 -5.74502,-54.33285 -13.5625,-79.90821 C 635.35481,204.87938 612.846,165.93875 580.33203,130.05469 575.55978,124.78767 561.86352,111.10054 556.92188,106.66016 533.74005,85.829792 511.56239,70.575514 485.55273,57.570312 449.36539,39.476096 408.84665,28.673518 365.73242,25.626953 c -8.52055,-0.602087 -16.93587,-0.893848 -25.2207,-0.875 z m 2.90039,5.910156 c 15.31857,7.26e-4 18.20976,0.09954 28.68164,0.976563 66.77796,5.592693 125.45625,30.540465 176.27344,74.945308 8.30921,7.26074 20.43384,19.12771 27.5039,26.91797 50.92642,56.11436 77.45034,121.41691 81.00586,199.43946 0.30132,6.61253 0.16347,21.64811 -0.2539,27.59961 -1.87467,26.73472 -5.52817,48.50329 -11.90821,70.9707 -11.52338,40.57933 -31.24222,77.76707 -58.76953,110.82812 -11.72158,14.07795 -26.07032,28.59025 -40.45312,40.91407 -26.65936,22.84294 -56.31932,40.82715 -87.35938,52.9707 -3.13834,1.22784 -13.4285,4.94638 -15.0957,5.45508 -0.60779,0.18549 -2.34715,0.73249 -3.86523,1.21484 -24.7413,7.86036 -51.55407,12.47938 -80.08399,13.79883 -6.12679,0.28363 -24.54978,0.27 -30.91406,-0.0234 -14.53956,-0.67018 -30.85243,-2.51625 -44.52149,-5.03711 C 228.49048,641.45972 179.54782,617.30354 136.71484,579.10938 109.03258,554.42504 85.892616,525.85777 68.939453,495.44141 46.944477,455.97939 34.288402,412.2272 30.820312,363.66016 29.61879,346.8341 29.760165,332.5677 31.298828,315.66016 36.995852,253.05897 58.993879,197.69195 97.097656,150.04102 119.5201,122.00047 147.76291,96.490487 177.17383,77.712891 218.62147,51.25037 264.09817,35.990717 314.49219,31.638672 c 9.86258,-0.851736 13.58911,-0.977288 28.91992,-0.976563 z m -18.66016,2.31836 c -0.81971,0.02632 -1.6061,0.08753 -2.33984,0.185547 -3.71953,0.496884 -15.14476,3.465228 -17.46484,4.537109 -7.94282,3.669581 -16.37982,9.786184 -19.89649,14.423828 -2.70453,3.56666 -3.36989,5.835496 -3.33789,11.402344 0.0491,8.543983 1.31096,12.855049 6.08008,20.787109 3.66503,6.095754 5.55538,10.028938 7.49414,15.585938 1.23577,3.542096 1.68541,5.916796 2.66797,14.083986 1.47722,12.27884 1.09722,15.19065 -3.66406,28.03515 -1.24852,3.36812 -3.14892,7.81262 -4.87696,11.4004 -1.55765,3.234 -3.15826,6.90544 -3.55664,8.16015 -2.0871,6.57347 -1.2443,13.03946 2.59961,19.91992 0.85369,1.52811 0.92632,1.5866 3.48047,2.91016 4.86421,2.52055 4.67573,2.48828 14.63477,2.48828 9.70236,0 10.03666,-0.0428 13.70117,-1.80273 2.36517,-1.1359 3.53992,-2.34022 4.02539,-4.12696 0.20765,-0.7642 0.45714,-3.7059 0.62695,-7.38867 0.1552,-3.36599 0.38599,-6.45472 0.51172,-6.86328 0.37425,-1.21567 1.06987,-1.41744 4.87109,-1.41211 3.75786,0.005 5.16338,0.30213 7.70508,1.63086 2.83152,1.48023 7.12986,6.5163 9.34571,10.94922 0.43288,0.86603 1.35458,3.1407 2.04882,5.05469 2.17148,5.98664 5.22559,11.63553 7.61328,14.08593 2.39032,2.45314 5.11774,3.84265 8.89258,4.5293 1.15486,0.21008 3.2649,0.65793 4.68946,0.99414 1.4246,0.33621 3.53028,0.74701 4.67968,0.91406 2.93478,0.42556 9.10044,0.42541 12.33789,-0.002 7.57106,-0.99945 12.1314,-3.02077 15.01758,-6.65625 1.21515,-1.53052 3.75688,-6.32819 4.74024,-8.94531 0.8369,-2.22771 1.05553,-4.32855 1.09179,-10.49219 l 0.0332,-5.69336 -0.7168,-1.50781 c -1.33899,-2.80851 -4.54036,-5.95882 -7.46484,-7.34766 -2.37364,-1.12722 -4.35554,-1.23116 -10.48438,-0.54492 -4.10407,0.45953 -5.22009,0.49051 -11.50586,0.32031 l -6.95898,-0.1875 -1.28907,-0.70703 c -1.43952,-0.7896 -2.16599,-1.62159 -2.94531,-3.37305 -0.42929,-0.96481 -0.54716,-1.7702 -0.63476,-4.30664 l -0.10743,-3.12109 0.68164,-0.67969 c 1.06758,-1.06548 3.69362,-2.49522 8.25391,-4.49023 2.30999,-1.01056 5.28156,-2.38039 6.60156,-3.04492 1.32,-0.66454 3.98621,-1.91838 5.92579,-2.78711 7.73221,-3.46326 11.82992,-5.7545 13.95312,-7.80078 2.44053,-2.35211 6.16749,-7.48576 7.78125,-10.7168 1.04053,-2.08347 1.8665,-4.50707 2.33008,-6.83984 0.22304,-1.12199 1.16025,-5.172 2.08398,-9 2.18848,-9.069614 2.84461,-12.933017 3.01367,-17.75977 0.18294,-5.221921 -0.40964,-7.446822 -2.73242,-10.257812 -2.27252,-2.749959 -7.2209,-5.762803 -10.7539,-6.548829 -3.89483,-0.866494 -9.01696,-0.14617 -14.50196,2.039063 -7.61073,3.032091 -13.9334,7.213693 -18.16601,12.015625 -3.22448,3.658243 -5.11662,7.061452 -8.73828,15.720703 -2.81959,6.74155 -3.41167,7.89746 -6.33985,12.35156 -4.6765,7.11362 -7.59836,9.95936 -12.69336,12.36719 -2.48732,1.17548 -5.13636,1.92137 -6.02929,1.69727 -1.08707,-0.27283 -1.19924,-0.84815 -1.29297,-6.61329 -0.0975,-5.99354 0.15372,-9.16683 1.04101,-13.09179 1.52524,-6.74694 5.65568,-21.100958 9.32227,-32.400393 2.32836,-7.175176 2.39773,-7.641153 2.2539,-15.216797 -0.1326,-6.982984 -0.48479,-9.777696 -1.85742,-14.724609 -1.24548,-4.4886 -2.76444,-6.936473 -5.37304,-8.667969 -3.24617,-2.154679 -10.67025,-3.654922 -16.40821,-3.470703 z m -62.43554,19.210937 c -0.35979,4.6e-4 -0.72807,0.01093 -1.10352,0.03125 -3.96369,0.214463 -6.08105,1.102152 -10.91992,4.576172 -6.22355,4.468141 -13.21065,6.733908 -28.57227,9.265625 -7.99993,1.318451 -11.95417,2.302478 -17.98828,4.480469 -6.28952,2.270181 -9.48607,4.270323 -12.52539,7.835937 -6.00787,7.048179 -8.68481,13.402642 -9.57226,22.720701 -0.49931,5.24282 -0.10621,9.54857 1.33203,14.5918 1.32568,4.64877 1.45099,5.98443 1.38086,14.6875 -0.0537,6.67131 -0.14689,8.55173 -0.54688,11.04102 -0.90784,5.64982 -2.50521,12.15763 -5.5,22.40624 -1.56853,5.36775 -1.96654,7.96696 -2.09961,13.7129 -0.11082,4.78662 -0.0889,5.11286 0.42188,6.48046 0.6777,1.8147 2.03516,3.17354 5.75195,5.75977 4.74724,3.30325 7.67448,4.50637 11.95508,4.91602 h 0.002 c 9.00582,0.86088 16.5462,-1.06519 30.51953,-7.79493 7.24852,-3.49098 9.37873,-4.08613 15.59961,-4.35937 4.16568,-0.18297 6.40118,0.11469 11.16016,1.48047 4.87773,1.39984 7.78736,1.85158 12,1.86718 4.97457,0.0183 7.86163,-0.86417 10.54101,-3.22265 2.03404,-1.79044 2.09168,-2.26231 1.33008,-11.01367 -0.5499,-6.31876 -0.96219,-9.68382 -1.67383,-13.69532 -2.60418,-14.67917 -3.28541,-20.12877 -4.23047,-33.81836 -0.54962,-7.97589 -0.54764,-19.35578 0.004,-25.080073 1.15189,-11.955482 2.58171,-19.718062 5.05274,-27.423828 0.96165,-2.998875 1.09765,-3.688527 1.09765,-5.53711 0,-2.560005 -0.39598,-4.010837 -1.88086,-6.878906 -2.48494,-4.799651 -6.13834,-7.0362 -11.53515,-7.029297 z m 226.8457,22.853516 c -0.54845,0.01008 -1.04516,0.05299 -1.47461,0.130859 -1.832,0.332212 -5.5642,1.609759 -8.79492,3.011719 -4.39508,1.907239 -5.06142,2.021538 -16.19922,2.759766 -5.92831,0.392948 -16.9786,1.403791 -18.48047,1.691406 -3.42752,0.656436 -7.20677,2.333463 -10.79492,4.791016 -2.60469,1.784061 -3.5891,2.732497 -4.5332,4.359374 -0.40619,0.699871 -1.446,2.243644 -2.3086,3.431641 -3.29376,4.536241 -6.48276,11.847397 -8.04883,18.447267 -1.09216,4.60163 -1.18269,6.34683 -1.19336,22.59375 -0.008,15.87976 -0.0554,17.04256 -1.19726,28.91992 -0.67115,6.98059 -0.87304,13.26168 -0.50781,15.84375 1.22816,8.68409 5.41901,14.58093 11.32812,15.93945 3.48149,0.8004 11.94979,2.03134 16.41602,2.38672 2.06186,0.16408 9.52527,-0.0486 11.16015,-0.31836 2.5826,-0.4261 6.73921,-1.41491 13.32032,-3.16797 11.36466,-3.02732 17.49188,-4.97634 25.91992,-8.24218 6.98238,-2.70563 8.51721,-3.06819 13.08008,-3.09766 4.27412,-0.0276 4.89503,0.15926 6.11914,1.83399 1.02122,1.39712 3.33067,2.73508 8.57812,4.9746 6.42057,2.74024 8.65746,3.08748 17.22266,2.66797 5.41194,-0.26506 6.61559,-0.50399 9.35937,-1.85351 4.0815,-2.00743 7.65951,-7.19249 8.75391,-12.6875 0.30827,-1.53614 0.36637,-3.1972 0.30664,-8.31055 l -0.0742,-6.39062 -1.01172,-2.00977 c -2.13856,-4.24265 -4.2116,-6.12211 -12.45703,-11.29492 -7.07967,-4.44151 -9.30994,-5.99428 -11.65234,-8.11133 -10.44062,-9.43575 -15.51944,-21.91657 -18.3125,-45.001953 -0.63766,-5.269804 -1.27682,-8.361729 -2.27149,-10.994141 -1.26601,-3.350596 -4.73419,-7.25138 -7.79883,-8.771484 -4.20138,-2.083925 -10.61396,-3.601778 -14.45312,-3.53125 z m -330.9082,42.285158 c -5.05086,-0.002 -6.06377,0.0635 -8.22071,0.5293 -8.97517,1.93832 -16.02425,6.20837 -24.87109,15.0664 -4.61483,4.62067 -9.8715,10.93665 -12.76367,15.33594 -0.95456,1.452 -3.24912,5.4469 -5.09961,8.8789 -1.85047,3.43199 -3.97011,7.32064 -4.70899,8.64063 -2.19314,3.91807 -3.395806,7.5316 -4.792965,14.40039 -1.564531,7.69165 -2.31992,14.62541 -2.785156,25.55859 -0.300672,7.06583 -0.713932,11.10239 -1.574219,15.34571 -3.097199,15.27681 -7.965816,26.53804 -18.287109,42.30468 -4.335703,6.62317 -8.839662,13.87774 -11.164063,17.98047 -2.210213,3.90123 -6.732104,12.9921 -7.972656,16.0293 -2.158959,5.28572 -2.262403,6.12173 -2.283203,18.39844 -0.01506,8.8898 0.02661,9.9727 0.43164,11.40625 0.683967,2.4207 3.756928,7.97313 5.365235,9.69336 2.00902,2.14885 6.028659,4.94594 8.341797,5.80468 0.65155,0.24289 2.131882,0.30113 6.023437,0.23633 5.835616,-0.0971 5.955371,-0.12203 12.34961,-2.47656 4.137389,-1.52349 11.133987,-4.84992 14.650392,-6.96484 1.32,-0.79392 3.85861,-2.32604 5.64062,-3.40625 1.78199,-1.08023 3.77946,-2.13329 4.43946,-2.33985 1.68122,-0.52632 20.74118,-0.48757 23.87109,0.0488 5.44245,0.93273 21.20685,5.61939 29.41016,8.74219 5.27241,2.00707 5.84364,2.15444 9.69531,2.52344 5.00099,0.4782 14.8695,0.47441 17.63476,-0.008 6.76552,-1.1798 13.24268,-4.59775 18.41016,-9.71679 3.95704,-3.91992 5.58301,-6.95509 7.40234,-13.82422 0.52096,-1.96696 1.22607,-4.38695 1.56836,-5.37696 1.12303,-3.24809 1.77812,-6.045 2.625,-11.21093 1.2589,-7.67939 2.32822,-10.52985 7.45508,-19.86914 1.08694,-1.98 2.81611,-5.16228 3.8418,-7.07227 1.02569,-1.91001 2.48129,-4.39354 3.23437,-5.51953 5.27931,-7.89345 8.23548,-14.30541 9.76758,-21.18164 0.59206,-2.65708 0.65864,-3.41657 0.66797,-7.74609 0.009,-4.21342 -0.0579,-5.06295 -0.53516,-6.95899 -1.09597,-4.3538 -3.18648,-8.45282 -6.80273,-13.33398 -0.92349,-1.24652 -2.33814,-3.22227 -3.14453,-4.39063 -1.58783,-2.3006 -3.17018,-3.71744 -6.72266,-6.02344 -5.61701,-3.64614 -11.40327,-5.28463 -18.6582,-5.27929 -5.89876,0.004 -8.88102,0.84395 -15.80469,4.44922 -7.6995,4.00925 -9.48769,5.34515 -18.16015,13.5664 -6.6958,6.34744 -9.11753,8.4334 -14.03516,12.08399 -7.02724,5.21664 -11.1393,7.68946 -15.7207,9.45508 -5.44115,2.09693 -11.53218,2.80418 -13.7793,1.60156 -0.84893,-0.45434 -1.62918,-1.64633 -2.74805,-4.20117 -1.71454,-3.91496 -2.17292,-5.78064 -2.18359,-8.88868 -0.0106,-3.24817 0.63349,-6.48319 2.26953,-11.40039 1.37445,-4.1309 2.32128,-6.26246 4.33203,-9.75976 3.18361,-5.53726 7.11958,-10.75515 11.71875,-15.5293 1.54241,-1.60108 3.59978,-3.82917 4.57031,-4.95117 0.97052,-1.122 2.91089,-3.17819 4.3125,-4.57031 1.40162,-1.39199 3.54394,-3.87553 4.76172,-5.51954 1.21778,-1.64402 3.4116,-4.55476 4.87305,-6.46874 3.04169,-3.98355 5.00369,-7.14906 7.38281,-11.9043 4.10247,-8.19972 5.5526,-14.44011 5.20899,-22.41602 -0.27046,-6.27773 -0.82855,-8.94845 -2.28321,-10.91992 -0.38958,-0.528 -1.20626,-1.70561 -1.81445,-2.61719 -2.13001,-3.19248 -4.58743,-4.99794 -7.92578,-5.82226 -1.32487,-0.32719 -2.80378,-0.40945 -7.41406,-0.41211 z m 63.52929,4.67187 c 0.73747,0.0396 1.48463,0.20021 2.24414,0.48438 1.06951,0.40016 1.41621,0.6652 1.66211,1.26172 0.50035,1.2137 2.70358,12.69078 3.13867,16.35351 0.48325,4.06792 0.37206,5.74024 -0.47265,7.18164 -1.29205,2.20472 -2.62025,2.87262 -7.44531,3.74414 -5.4181,0.9786 -8.29736,0.45459 -10.4961,-1.91015 -1.69918,-1.82748 -2.00419,-2.96537 -1.99218,-7.45508 0.009,-3.42669 0.0624,-3.872 0.67382,-5.64063 0.36507,-1.056 1.60234,-3.64661 2.75,-5.75781 1.5981,-2.9398 2.42451,-4.18106 3.52735,-5.29687 2.07604,-2.10044 4.19774,-3.08356 6.41015,-2.96485 z m 239.4375,17.00782 c 1.27813,0.007 2.50135,0.13496 2.84961,0.3789 0.288,0.20172 1.28464,1.84889 2.2168,3.66016 1.60565,3.11969 6.95543,11.12739 8.55469,12.80664 0.38005,0.39899 1.57752,1.22074 2.66211,1.82617 2.43893,1.36159 2.88313,2.06773 2.48047,3.94531 -0.4207,1.96155 -0.9068,2.71991 -3.03907,4.73828 -3.6931,3.49579 -7.76934,5.75688 -11.90234,6.59961 -2.42869,0.49518 -11.37317,0.51825 -12.73242,0.0332 -1.50251,-0.53614 -2.1962,-1.22355 -2.56836,-2.54297 -0.32342,-1.14666 0.0995,-11.91765 0.58203,-14.81446 0.56075,-3.36686 1.64723,-6.43246 3.73437,-10.54101 2.17684,-4.28523 2.86545,-5.2791 3.97852,-5.74414 0.57205,-0.23901 1.90546,-0.35254 3.18359,-0.3457 z m 119.19141,41.32226 c -4.10356,0.006 -6.72049,0.62317 -10.09961,2.27539 -2.52725,1.23571 -5.07656,3.42431 -9.16211,7.86328 -2.01439,2.18858 -4.59517,4.72777 -5.73437,5.64453 -3.74762,3.01598 -7.9231,4.94798 -13.11914,6.07032 -2.17601,0.47002 -3.17134,0.53168 -9.04493,0.54101 -4.75198,0.008 -8.04447,-0.12328 -11.75976,-0.46484 -7.1522,-0.65756 -23.08251,-0.68442 -27.59961,-0.0469 -5.97204,0.84291 -10.33385,2.16681 -14.91016,4.52539 -4.85353,2.50151 -7.49284,5.00488 -9.44922,8.96094 -1.43561,2.90312 -2.00554,5.41194 -2.31445,10.19922 -0.34101,5.28528 -0.11343,16.77346 0.40625,20.52149 0.30837,2.22272 0.3698,3.92017 0.26953,7.43945 -0.14901,5.21096 -0.52587,7.37053 -2.19531,12.58008 -2.04736,6.38882 -2.31768,9.88005 -0.97656,12.62109 1.31413,2.68593 3.70344,3.93534 11.04101,5.77539 7.78943,1.95337 9.93761,2.06224 22.92969,1.16211 8.06367,-0.55868 10.60585,-1.00742 22.31836,-3.94141 13.24979,-3.31909 21.73784,-5.26078 25.56055,-5.8457 4.63989,-0.70987 9.508,-0.86655 21.12109,-0.68164 13.08808,0.20837 12.50404,0.1032 14.06445,2.51758 1.42048,2.19768 1.92599,3.79101 2.07031,6.53125 0.15713,2.98254 -0.31967,5.51033 -1.51562,8.04101 -0.94624,2.00227 -3.63411,6.1246 -4.47656,6.86719 -1.2895,1.13657 -8.19582,4.90015 -10.6211,5.78711 -1.46217,0.53477 -10.55937,0.85726 -15.74218,0.55859 -9.71807,-0.56002 -18.83501,-2.25529 -28.66016,-5.32812 -8.63519,-2.70067 -16.51146,-4.33994 -28.08008,-5.8457 -7.56276,-0.98435 -14.23316,-0.90241 -18.6914,0.22851 -5.98676,1.51868 -9.46916,4.88464 -10.97071,10.60938 -0.70592,2.69142 -0.86891,7.94686 -0.36523,11.7539 0.71637,5.4147 1.93749,8.17635 4.92383,11.13282 3.44192,3.40736 8.34864,5.25905 15.87695,5.98828 3.20288,0.31025 17.87114,0.0627 21.55859,-0.36328 5.66442,-0.65438 9.41596,-1.52099 19.02735,-4.39844 7.32436,-2.19278 9.67111,-2.76732 13.98437,-3.41992 4.07232,-0.61614 11.61318,-0.83585 16.44922,-0.47852 7.87881,0.58221 11.91354,1.44029 21.02734,4.4668 7.65503,2.54205 10.13494,3.14326 14.45313,3.5039 8.08916,0.67563 20.11669,-1.25761 28.4707,-4.57617 5.85396,-2.32542 11.0667,-5.84281 15.98242,-10.78515 4.17312,-4.19579 5.39087,-6.47078 5.22266,-9.75196 -0.17195,-3.35529 -1.75382,-6.05935 -6.45898,-11.03711 -3.70368,-3.91833 -9.29545,-10.24822 -11.75977,-13.3125 -5.34708,-6.64898 -12.6284,-19.42778 -15.17773,-26.63867 -1.62634,-4.59995 -3.27075,-7.84934 -4.71875,-9.32031 -1.52,-1.54416 -3.6735,-2.60022 -5.99414,-2.9375 -1.24843,-0.18143 -11.58197,-0.23945 -33.72071,-0.18945 -33.0267,0.0747 -33.14679,0.0732 -38.1582,-0.89454 -7.77716,-1.50184 -11.93555,-4.29434 -11.93555,-8.01562 0,-5.64912 8.78167,-8.91043 23.09375,-8.57422 7.89727,0.18552 11.58508,0.90757 17,3.33203 1.80416,0.80778 4.03699,1.78487 4.96094,2.16992 2.07636,0.86526 11.67069,3.32075 15.7207,4.02344 7.24852,1.25763 15.80375,0.74069 21.16992,-1.2793 10.42463,-3.92418 15.13941,-10.85736 15.11915,-22.23437 -0.0104,-5.75355 -0.94691,-8.48452 -5.76172,-16.80078 -2.10752,-3.6403 -2.5082,-4.17388 -4.95117,-6.60352 -3.58923,-3.56966 -7.56302,-7.06102 -9.08985,-7.98633 -1.98944,-1.20576 -4.52401,-1.75798 -8.75195,-1.90625 -0.65344,-0.0229 -1.26925,-0.0341 -1.85547,-0.0332 z m -322.86523,6.73633 c -0.62355,0.002 -1.27511,0.0171 -1.96094,0.043 -9.65147,0.36418 -11.58138,0.5281 -12.87891,1.08984 -3.14083,1.35976 -5.73646,6.0659 -5.70312,10.33985 0.0211,2.69464 0.52224,4.09058 3.3125,9.21679 4.91745,9.03426 8.77852,16.44793 9.57421,18.38281 0.46142,1.12201 1.23382,3.49927 1.71485,5.28126 0.48103,1.78201 1.44991,5.12946 2.1543,7.43945 2.47716,8.12365 2.77415,10.55873 2.77148,22.79297 -0.002,10.21856 -0.1368,11.90236 -1.33008,16.61132 -0.8423,3.32401 -3.1303,10.58655 -3.80469,12.07618 -0.71322,1.57548 -4.22832,6.92521 -6.16796,9.38672 -5.25415,6.66788 -8.2527,10.20337 -9.4043,11.09179 -3.55587,2.74334 -6.76627,7.34251 -7.99805,11.45508 -0.62504,2.08703 -0.56334,5.55938 0.13086,7.36523 0.65756,1.71051 2.44382,3.71107 4.34375,4.86524 1.47547,0.89627 8.91239,3.96137 11.39258,4.69531 2.08389,0.61666 6.42324,0.60327 9.52734,-0.0293 1.3212,-0.26927 5.00975,-1.34118 8.19727,-2.38086 6.35183,-2.07182 10.27267,-3.09381 14.67578,-3.82813 6.15811,-1.02689 7.65502,-1.10202 21.71875,-1.08789 14.50731,0.0145 17.37128,0.16921 21.96094,1.1875 4.67984,1.03833 6.0817,1.18341 11.51953,1.19141 5.12916,0.007 5.30561,-0.01 6.18555,-0.55664 1.46501,-0.91083 1.73769,-1.66577 1.70703,-4.7168 -0.0309,-3.07532 -0.48957,-5.25147 -1.5586,-7.37891 -1.10133,-2.19169 -4.36878,-6.43172 -7.46679,-9.6914 -6.19771,-6.52112 -7.35325,-8.44342 -10.79102,-17.9375 -2.6032,-7.18923 -2.80876,-8.06755 -3.14062,-13.47071 -0.7529,-12.25802 -0.23146,-16.77254 3.0957,-26.76172 3.39475,-10.19216 5.55048,-14.81574 9.89258,-21.23437 6.47956,-9.57824 9.90405,-20.32157 8.91797,-27.97461 -0.8602,-6.67589 -4.2472,-12.35045 -8.76172,-14.68164 -2.47624,-1.27867 -4.33638,-1.69933 -7.43946,-1.68359 -2.77122,0.0141 -3.30081,0.1229 -8.76953,1.80468 -6.83529,2.10202 -11.16614,2.63607 -21.59179,2.66407 -10.45251,0.0281 -14.52389,-0.58023 -21.96094,-3.28321 -4.65282,-1.69105 -7.69965,-2.29702 -12.06445,-2.2832 z m 188.29296,15.8457 c -0.4175,-0.015 -0.8405,-0.009 -1.26757,0.0176 -1.056,0.0659 -3.00033,0.39463 -4.32032,0.73047 -2.47402,0.62943 -6.00623,1.32112 -18.58007,3.64258 -20.01287,3.69494 -22.92997,3.96272 -44.53907,4.06445 -13.73853,0.0647 -14.49781,0.091 -16.51172,0.57813 -1.16096,0.28081 -2.90112,0.89609 -3.86718,1.36718 -6.4942,3.1667 -15.2258,14.04955 -19.05274,23.7461 -1.27857,3.2396 -3.72572,10.72899 -4.46875,13.67968 -1.25926,5.00074 -1.62626,8.01802 -1.75,14.40039 -0.15288,7.88325 0.44843,13.69708 2.24219,21.72071 1.53749,6.87717 3.23936,11.36871 7.54883,19.91992 4.79416,9.51297 8.40573,15.62638 12.55078,21.24023 1.07211,1.45199 2.21823,3.03958 2.54687,3.5293 1.41659,2.11113 9.01037,5.19848 14.88086,6.04883 1.25399,0.18163 3.98576,0.34133 6.07032,0.35547 4.16385,0.0283 6.28524,-0.28686 8.79492,-1.30664 0.82232,-0.33414 2.91605,-0.98418 4.65429,-1.44532 2.00436,-0.53172 4.25961,-1.35157 6.16211,-2.24218 4.72351,-2.2111 8.02392,-3.12855 13.44727,-3.73438 7.12863,-0.79632 10.5908,-0.20233 18.03516,3.09375 1.6737,0.7411 3.8876,1.56055 4.91992,1.82031 2.53364,0.63755 7.4463,1.02188 11.76172,0.92188 l 3.55468,-0.082 2.40039,-1.28711 c 6.49631,-3.48385 9.61363,-6.77409 10.45118,-11.03125 0.38964,-1.98049 0.16381,-9.00849 -0.34766,-10.8418 -0.55531,-1.98976 -3.25213,-7.31565 -5.42578,-10.71289 -2.39017,-3.73576 -3.1252,-5.14778 -5.41992,-10.42578 -3.3074,-7.60679 -3.5998,-9.1582 -3.39063,-17.98047 0.21184,-8.92941 1.24949,-13.10475 5.51563,-22.19922 5.44532,-11.60822 7.45901,-19.343 7.43554,-28.56054 -0.009,-3.32495 -0.0916,-4.1561 -0.62304,-6.19336 -2.0246,-7.76285 -7.1457,-12.60959 -13.40821,-12.83399 z m -257.60937,59.66602 c 2.89763,-0.005 5.91721,1.03044 6.89062,2.60547 0.64374,1.04164 0.92599,3.9832 0.66016,6.875 -0.64293,6.99417 -5.24469,15.84352 -9.31641,17.91601 -1.80866,0.92059 -3.65655,1.45454 -5.41211,1.56641 -4.44937,0.2848 -8.29246,0.28457 -10.08007,0.002 -1.75916,-0.2781 -4.19641,-0.83419 -13.67969,-3.12109 -1.84799,-0.44566 -4.2233,-0.93647 -5.2793,-1.08985 -2.79016,-0.40525 -3.22771,-0.97975 -2.29883,-3.02539 1.43847,-3.1678 5.76076,-6.03231 19.23828,-12.74414 4.54274,-2.26228 9.82624,-5.0408 11.74024,-6.17578 1.91399,-1.13498 4.05535,-2.23328 4.75976,-2.43945 0.85877,-0.25134 1.81147,-0.36755 2.77735,-0.36914 z m 193.82422,0.73633 c 2.43984,0.003 6.39188,0.3551 8.18554,0.80468 3.58324,0.89814 3.64867,0.95508 5.75,5.10743 1.82902,3.61405 3.26965,7.59029 3.94922,10.90039 0.94699,4.6108 0.9211,10.59893 -0.0488,11.55273 -0.44224,0.43484 -9.09016,4.17529 -11.64257,5.03516 h -0.002 c -1.92538,0.64862 -2.48231,0.60655 -5.32031,-0.40039 -0.90613,-0.3215 -2.41947,-0.69174 -3.36133,-0.82227 -0.94185,-0.13055 -2.01478,-0.36 -2.38476,-0.50976 -0.76483,-0.30955 -3.3974,-3.84142 -4.42969,-5.94336 -0.65533,-1.33464 -0.65789,-1.36326 -0.73242,-7.23829 -0.0848,-6.68225 0.0933,-7.95864 1.49804,-10.74804 1.46814,-2.91532 5.31116,-7.25656 6.74024,-7.61524 0.34168,-0.0858 0.98555,-0.124 1.79883,-0.12304 z m -38.50196,93.44726 a 20.419668,20.419668 0 0 0 -20.41796,20.41992 20.419668,20.419668 0 0 0 15.65234,19.82618 L 326.34961,418.5 h -73.76953 c -18.77723,0 -33.88867,15.11143 -33.88867,33.88867 v 81.82031 c 0,18.77726 15.11144,33.89063 33.88867,33.89063 h 181.93945 c 18.77723,0 33.89649,-15.11337 33.89649,-33.89063 v -81.82031 c 0,-18.77724 -15.11926,-33.88867 -33.89649,-33.88867 h -73.77734 l -12.38477,-21.49805 a 20.419668,20.419668 0 0 0 15.61524,-19.81836 20.419668,20.419668 0 0 0 -20.41993,-20.41992 z m -82.45898,77.30469 h 164.91016 c 14.86904,0 26.84375,11.96696 26.84375,26.83594 v 64.79101 c 0,14.86899 -11.97471,26.83399 -26.84375,26.83399 H 261.09375 c -14.86897,0 -26.83398,-11.965 -26.83398,-26.83399 V 460.9043 c 0,-14.86898 11.96501,-26.83594 26.83398,-26.83594 z m 37.28125,41.55273 c -4.9056,0 -9.81188,1.26665 -14.20117,3.80079 -8.77855,5.06829 -14.19922,14.46292 -14.19922,24.5996 a 6.8426164,6.8426164 0 0 0 6.73437,6.9336 6.8426164,6.8426164 0 0 0 6.94922,-6.9336 c 0,-5.26974 2.79361,-10.11316 7.35742,-12.74804 4.56375,-2.63487 10.15489,-2.63487 14.71876,0 4.56369,2.63488 7.35742,7.4783 7.35742,12.74804 a 6.846847,6.846847 0 0 0 13.6914,0 c 0,-10.13668 -5.42848,-19.53131 -14.20703,-24.5996 -4.38933,-2.53414 -9.29553,-3.80079 -14.20117,-3.80079 z m 90.34961,0 c -4.9056,0 -9.812,1.26665 -14.20117,3.80079 -8.77866,5.06829 -14.19922,14.46292 -14.19922,24.5996 a 6.8426164,6.8426164 0 0 0 6.72656,6.9336 6.8426164,6.8426164 0 0 0 6.95703,-6.9336 c 0,-5.26974 2.79358,-10.11316 7.35742,-12.74804 4.56371,-2.63487 10.15505,-2.63487 14.71875,0 4.56387,2.63488 7.35743,7.4783 7.35743,12.74804 a 6.8426164,6.8426164 0 1 0 13.68359,0 c 0,-10.13668 -5.42066,-19.53131 -14.19922,-24.5996 -4.38932,-2.53414 -9.29558,-3.80079 -14.20117,-3.80079 z m -95.04102,107.78907 0.0606,53.5332 49.80859,-26.8125 z m 49.86914,26.7207 49.81641,26.8125 0.0527,-53.5332 z"
       transform="matrix(0.75,0,0,0.75,25.799804,25.799804)"
       id="path5624"
       inkscape:connector-curvature="0" />
    <flowRoot
       xml:space="preserve"
       id="flowRoot826"
       style="font-style:normal;font-weight:normal;font-size:40px;line-height:1.25;font-family:sans-serif;letter-spacing:0px;word-spacing:0px;fill:#000000;fill-opacity:1;stroke:none"><flowRegion
         id="flowRegion828"><rect
           id="rect830"
           width="221.80698"
           height="160.95018"
           x="235.41968"
           y="423.66095" /></flowRegion><flowPara
         id="flowPara832" /></flowRoot>    <g
       id="g856"
       transform="matrix(0.75,0,0,0.75,761.05664,100.48947)" />
    <g
       id="g858"
       transform="matrix(0.75,0,0,0.75,761.05664,100.48947)" />
    <g
       id="g860"
       transform="matrix(0.75,0,0,0.75,761.05664,100.48947)" />
    <g
       id="g862"
       transform="matrix(0.75,0,0,0.75,761.05664,100.48947)" />
    <g
       id="g864"
       transform="matrix(0.75,0,0,0.75,761.05664,100.48947)" />
    <g
       id="g866"
       transform="matrix(0.75,0,0,0.75,761.05664,100.48947)" />
    <g
       id="g868"
       transform="matrix(0.75,0,0,0.75,761.05664,100.48947)" />
    <g
       id="g870"
       transform="matrix(0.75,0,0,0.75,761.05664,100.48947)" />
    <g
       id="g872"
       transform="matrix(0.75,0,0,0.75,761.05664,100.48947)" />
    <g
       id="g874"
       transform="matrix(0.75,0,0,0.75,761.05664,100.48947)" />
    <g
       id="g876"
       transform="matrix(0.75,0,0,0.75,761.05664,100.48947)" />
    <g
       id="g878"
       transform="matrix(0.75,0,0,0.75,761.05664,100.48947)" />
    <g
       id="g880"
       transform="matrix(0.75,0,0,0.75,761.05664,100.48947)" />
    <g
       id="g882"
       transform="matrix(0.75,0,0,0.75,761.05664,100.48947)" />
    <g
       id="g884"
       transform="matrix(0.75,0,0,0.75,761.05664,100.48947)" />
  </g>
</svg>
